# xmcd
#
# Track frame offsets:
#	150
#	16887
#	35510
#	53312
#	68960
#	84765
#	97227
#	113177
#	128930
#	143727
#	161527
#	182212
#
# Disc length: 2599 seconds
#
# Revision: 0
# Processed by: cddbd v1.5.2PL0 Copyright (c) Steve Scherf et al.
# Submitted via: EasyCDDAExtractor 2010.6.0.0
#
DISCID=990a250c
DTITLE=Titiyo - Come Along
DYEAR=2001
DGENRE=Pop
TTITLE0=Come Along
TTITLE1=1989
TTITLE2=Love Has Left Your Eye
TTITLE3=My Heart Won
TTITLE4=Show
TTITLE5=Hold Her Tight
TTITLE6=Right or Wrong
TTITLE7=I See Good in People
TTITLE8=Last Time
TTITLE9=Given Thing
TTITLE10=Time
TTITLE11=Josefin Dean
EXTD=
EXTT0=
EXTT1=
EXTT2=
EXTT3=
EXTT4=
EXTT5=
EXTT6=
EXTT7=
EXTT8=
EXTT9=
EXTT10=
EXTT11=
PLAYORDER=
